<?xml version="1.0" encoding="UTF-8" standalone="no"?>
<!DOCTYPE svg PUBLIC "-//W3C//DTD SVG 1.1//EN"
 "http://www.w3.org/Graphics/SVG/1.1/DTD/svg11.dtd">
<!-- Generated by graphviz version 2.40.1 (20161225.0304)
 -->
<!-- Title: G Pages: 1 -->
<svg width="766pt" height="825pt"
 viewBox="0.00 0.00 765.53 824.80" xmlns="http://www.w3.org/2000/svg" xmlns:xlink="http://www.w3.org/1999/xlink">
<g id="graph0" class="graph" transform="scale(1 1) rotate(0) translate(4 820.8)">
<title>G</title>
<polygon fill="#ffffff" stroke="transparent" points="-4,4 -4,-820.8 761.5316,-820.8 761.5316,4 -4,4"/>
<text text-anchor="middle" x="378.7658" y="-8.2" font-family="Times,serif" font-size="14.00" fill="#000000">PDDL</text>
<!-- temp -->
<g id="node1" class="node">
<title>temp</title>
<polygon fill="#add8e6" stroke="#add8e6" points="144,-816.8 0,-816.8 0,-672.8 144,-672.8 144,-816.8"/>
<text text-anchor="middle" x="72" y="-740.6" font-family="Times,serif" font-size="14.00" fill="#000000">Temperature</text>
</g>
<!-- index -->
<g id="node6" class="node">
<title>index</title>
<polygon fill="#add8e6" stroke="#add8e6" points="253.2989,-643.3331 180.2327,-643.3331 180.2327,-570.2669 253.2989,-570.2669 253.2989,-643.3331"/>
<text text-anchor="middle" x="216.7658" y="-602.6" font-family="Times,serif" font-size="14.00" fill="#000000">Heatindex</text>
</g>
<!-- temp&#45;&gt;index -->
<g id="edge1" class="edge">
<title>temp&#45;&gt;index</title>
<path fill="none" stroke="#000000" d="M144.3394,-720.8C180.8639,-720.8 217.5316,-720.8 217.5316,-720.8 217.5316,-720.8 217.5316,-653.4978 217.5316,-653.4978"/>
<polygon fill="#000000" stroke="#000000" points="221.0317,-653.4978 217.5316,-643.4978 214.0317,-653.4979 221.0317,-653.4978"/>
</g>
<!-- biggerTemp25 -->
<g id="node17" class="node">
<title>biggerTemp25</title>
<ellipse fill="#c0c0c0" stroke="#c0c0c0" cx="325.5316" cy="-582.8" rx="36" ry="18"/>
<text text-anchor="middle" x="325.5316" y="-578.6" font-family="Times,serif" font-size="14.00" fill="#000000">&gt;25</text>
</g>
<!-- temp&#45;&gt;biggerTemp25 -->
<g id="edge3" class="edge">
<title>temp&#45;&gt;biggerTemp25</title>
<path fill="none" stroke="#000000" d="M144.0355,-768.8C201.1889,-768.8 271.5316,-768.8 271.5316,-768.8 271.5316,-768.8 271.5316,-585.4171 271.5316,-585.4171 271.5316,-585.4171 279.8135,-585.4171 279.8135,-585.4171"/>
<polygon fill="#000000" stroke="#000000" points="279.8136,-588.9172 289.8135,-585.4171 279.8135,-581.9172 279.8136,-588.9172"/>
</g>
<!-- humid -->
<g id="node2" class="node">
<title>humid</title>
<polygon fill="#add8e6" stroke="#add8e6" points="144,-654.8 0,-654.8 0,-510.8 144,-510.8 144,-654.8"/>
<text text-anchor="middle" x="72" y="-578.6" font-family="Times,serif" font-size="14.00" fill="#000000">Humidity</text>
</g>
<!-- humid&#45;&gt;index -->
<g id="edge2" class="edge">
<title>humid&#45;&gt;index</title>
<path fill="none" stroke="#000000" d="M144.3829,-606.8C144.3829,-606.8 169.8607,-606.8 169.8607,-606.8"/>
<polygon fill="#000000" stroke="#000000" points="169.8607,-610.3001 179.8607,-606.8 169.8607,-603.3001 169.8607,-610.3001"/>
</g>
<!-- mcount -->
<g id="node3" class="node">
<title>mcount</title>
<polygon fill="#add8e6" stroke="#add8e6" points="144,-492.8 0,-492.8 0,-348.8 144,-348.8 144,-492.8"/>
<text text-anchor="middle" x="72" y="-416.6" font-family="Times,serif" font-size="14.00" fill="#000000">Persons inside building</text>
</g>
<!-- biggerMcount7 -->
<g id="node20" class="node">
<title>biggerMcount7</title>
<ellipse fill="#c0c0c0" stroke="#c0c0c0" cx="433.5316" cy="-474.8" rx="36" ry="18"/>
<text text-anchor="middle" x="433.5316" y="-470.6" font-family="Times,serif" font-size="14.00" fill="#000000">&gt;7</text>
</g>
<!-- mcount&#45;&gt;biggerMcount7 -->
<g id="edge12" class="edge">
<title>mcount&#45;&gt;biggerMcount7</title>
<path fill="none" stroke="#000000" d="M144.2924,-474.8C144.2924,-474.8 387.1995,-474.8 387.1995,-474.8"/>
<polygon fill="#000000" stroke="#000000" points="387.1996,-478.3001 397.1995,-474.8 387.1995,-471.3001 387.1996,-478.3001"/>
</g>
<!-- biggerMcount10 -->
<g id="node21" class="node">
<title>biggerMcount10</title>
<ellipse fill="#c0c0c0" stroke="#c0c0c0" cx="433.5316" cy="-420.8" rx="36" ry="18"/>
<text text-anchor="middle" x="433.5316" y="-416.6" font-family="Times,serif" font-size="14.00" fill="#000000">&gt;10</text>
</g>
<!-- mcount&#45;&gt;biggerMcount10 -->
<g id="edge14" class="edge">
<title>mcount&#45;&gt;biggerMcount10</title>
<path fill="none" stroke="#000000" d="M144.2924,-420.8C144.2924,-420.8 387.1995,-420.8 387.1995,-420.8"/>
<polygon fill="#000000" stroke="#000000" points="387.1996,-424.3001 397.1995,-420.8 387.1995,-417.3001 387.1996,-424.3001"/>
</g>
<!-- pcount -->
<g id="node4" class="node">
<title>pcount</title>
<polygon fill="#add8e6" stroke="#add8e6" points="144,-168.8 0,-168.8 0,-24.8 144,-24.8 144,-168.8"/>
<text text-anchor="middle" x="72" y="-92.6" font-family="Times,serif" font-size="14.00" fill="#000000">Persons in section n</text>
</g>
<!-- biggerPcount4 -->
<g id="node24" class="node">
<title>biggerPcount4</title>
<ellipse fill="#c0c0c0" stroke="#c0c0c0" cx="325.5316" cy="-96.8" rx="36" ry="18"/>
<text text-anchor="middle" x="325.5316" y="-92.6" font-family="Times,serif" font-size="14.00" fill="#000000">&gt;4</text>
</g>
<!-- pcount&#45;&gt;biggerPcount4 -->
<g id="edge18" class="edge">
<title>pcount&#45;&gt;biggerPcount4</title>
<path fill="none" stroke="#000000" d="M144.3127,-96.8C144.3127,-96.8 279.3561,-96.8 279.3561,-96.8"/>
<polygon fill="#000000" stroke="#000000" points="279.3562,-100.3001 289.3561,-96.8 279.3561,-93.3001 279.3562,-100.3001"/>
</g>
<!-- biggerPcount2 -->
<g id="node25" class="node">
<title>biggerPcount2</title>
<ellipse fill="#c0c0c0" stroke="#c0c0c0" cx="216.7658" cy="-146.8" rx="36" ry="18"/>
<text text-anchor="middle" x="216.7658" y="-142.6" font-family="Times,serif" font-size="14.00" fill="#000000">&gt;2</text>
</g>
<!-- pcount&#45;&gt;biggerPcount2 -->
<g id="edge20" class="edge">
<title>pcount&#45;&gt;biggerPcount2</title>
<path fill="none" stroke="#000000" d="M144.3829,-146.8C144.3829,-146.8 170.6087,-146.8 170.6087,-146.8"/>
<polygon fill="#000000" stroke="#000000" points="170.6087,-150.3001 180.6087,-146.8 170.6087,-143.3001 170.6087,-150.3001"/>
</g>
<!-- shelf -->
<g id="node5" class="node">
<title>shelf</title>
<polygon fill="#add8e6" stroke="#add8e6" points="144,-330.8 0,-330.8 0,-186.8 144,-186.8 144,-330.8"/>
<text text-anchor="middle" x="72" y="-254.6" font-family="Times,serif" font-size="14.00" fill="#000000">Shelf in section n</text>
</g>
<!-- isEmpty -->
<g id="node22" class="node">
<title>isEmpty</title>
<ellipse fill="#c0c0c0" stroke="#c0c0c0" cx="216.7658" cy="-258.8" rx="36" ry="18"/>
<text text-anchor="middle" x="216.7658" y="-254.6" font-family="Times,serif" font-size="14.00" fill="#000000">isEmpty</text>
</g>
<!-- shelf&#45;&gt;isEmpty -->
<g id="edge16" class="edge">
<title>shelf&#45;&gt;isEmpty</title>
<path fill="none" stroke="#000000" d="M144.3829,-258.8C144.3829,-258.8 170.6087,-258.8 170.6087,-258.8"/>
<polygon fill="#000000" stroke="#000000" points="170.6087,-262.3001 180.6087,-258.8 170.6087,-255.3001 170.6087,-262.3001"/>
</g>
<!-- allEmpty -->
<g id="node23" class="node">
<title>allEmpty</title>
<ellipse fill="#c0c0c0" stroke="#c0c0c0" cx="216.7658" cy="-343.8" rx="36" ry="18"/>
<text text-anchor="middle" x="216.7658" y="-339.6" font-family="Times,serif" font-size="14.00" fill="#000000">allEmpty</text>
</g>
<!-- shelf&#45;&gt;allEmpty -->
<g id="edge24" class="edge">
<title>shelf&#45;&gt;allEmpty</title>
<path fill="none" stroke="#000000" d="M144.3394,-301.3C180.8639,-301.3 217.5316,-301.3 217.5316,-301.3 217.5316,-301.3 217.5316,-315.5295 217.5316,-315.5295"/>
<polygon fill="#000000" stroke="#000000" points="214.0317,-315.5295 217.5316,-325.5295 221.0317,-315.5296 214.0317,-315.5295"/>
</g>
<!-- biggerIndex32 -->
<g id="node18" class="node">
<title>biggerIndex32</title>
<ellipse fill="#c0c0c0" stroke="#c0c0c0" cx="325.5316" cy="-528.8" rx="36" ry="18"/>
<text text-anchor="middle" x="325.5316" y="-524.6" font-family="Times,serif" font-size="14.00" fill="#000000">&gt;32</text>
</g>
<!-- index&#45;&gt;biggerIndex32 -->
<g id="edge4" class="edge">
<title>index&#45;&gt;biggerIndex32</title>
<path fill="none" stroke="#000000" d="M217.5316,-570.084C217.5316,-549.8532 217.5316,-528.8 217.5316,-528.8 217.5316,-528.8 279.2687,-528.8 279.2687,-528.8"/>
<polygon fill="#000000" stroke="#000000" points="279.2688,-532.3001 289.2687,-528.8 279.2687,-525.3001 279.2688,-532.3001"/>
</g>
<!-- biggerIndex27 -->
<g id="node19" class="node">
<title>biggerIndex27</title>
<ellipse fill="#c0c0c0" stroke="#c0c0c0" cx="325.5316" cy="-636.8" rx="36" ry="18"/>
<text text-anchor="middle" x="325.5316" y="-632.6" font-family="Times,serif" font-size="14.00" fill="#000000">&gt;27</text>
</g>
<!-- index&#45;&gt;biggerIndex27 -->
<g id="edge5" class="edge">
<title>index&#45;&gt;biggerIndex27</title>
<path fill="none" stroke="#000000" d="M253.5889,-631.1829C253.5889,-631.1829 281.3133,-631.1829 281.3133,-631.1829"/>
<polygon fill="#000000" stroke="#000000" points="281.3134,-634.683 291.3133,-631.1829 281.3133,-627.683 281.3134,-634.683"/>
</g>
<!-- gateO -->
<g id="node7" class="node">
<title>gateO</title>
<polygon fill="#ffa500" stroke="#ffa500" points="757.5316,-492.8 613.5316,-492.8 613.5316,-348.8 757.5316,-348.8 757.5316,-492.8"/>
<text text-anchor="middle" x="685.5316" y="-416.6" font-family="Times,serif" font-size="14.00" fill="#000000">Gate outside</text>
</g>
<!-- gateI -->
<g id="node8" class="node">
<title>gateI</title>
<polygon fill="#ffa500" stroke="#ffa500" points="757.5316,-168.8 613.5316,-168.8 613.5316,-24.8 757.5316,-24.8 757.5316,-168.8"/>
<text text-anchor="middle" x="685.5316" y="-92.6" font-family="Times,serif" font-size="14.00" fill="#000000">Section gate n</text>
</g>
<!-- vent -->
<g id="node9" class="node">
<title>vent</title>
<polygon fill="#ffa500" stroke="#ffa500" points="757.5316,-654.8 613.5316,-654.8 613.5316,-510.8 757.5316,-510.8 757.5316,-654.8"/>
<text text-anchor="middle" x="685.5316" y="-578.6" font-family="Times,serif" font-size="14.00" fill="#000000">Ventilator</text>
</g>
<!-- bot -->
<g id="node10" class="node">
<title>bot</title>
<polygon fill="#ffa500" stroke="#ffa500" points="757.5316,-330.8 613.5316,-330.8 613.5316,-186.8 757.5316,-186.8 757.5316,-330.8"/>
<text text-anchor="middle" x="685.5316" y="-254.6" font-family="Times,serif" font-size="14.00" fill="#000000">Shelf refill notification</text>
</g>
<!-- andTempIndex27 -->
<g id="node11" class="node">
<title>andTempIndex27</title>
<ellipse fill="#c0c0c0" stroke="#c0c0c0" cx="433.5316" cy="-582.8" rx="36" ry="18"/>
<text text-anchor="middle" x="433.5316" y="-578.6" font-family="Times,serif" font-size="14.00" fill="#000000">&amp;</text>
</g>
<!-- orVent -->
<g id="node16" class="node">
<title>orVent</title>
<ellipse fill="#c0c0c0" stroke="#c0c0c0" cx="541.5316" cy="-582.8" rx="36" ry="18"/>
<text text-anchor="middle" x="541.5316" y="-578.6" font-family="Times,serif" font-size="14.00" fill="#000000">OR</text>
</g>
<!-- andTempIndex27&#45;&gt;orVent -->
<g id="edge11" class="edge">
<title>andTempIndex27&#45;&gt;orVent</title>
<path fill="none" stroke="#000000" d="M469.7945,-582.8C469.7945,-582.8 495.1806,-582.8 495.1806,-582.8"/>
<polygon fill="#000000" stroke="#000000" points="495.1806,-586.3001 505.1806,-582.8 495.1806,-579.3001 495.1806,-586.3001"/>
</g>
<!-- andTempIndex32 -->
<g id="node12" class="node">
<title>andTempIndex32</title>
<ellipse fill="#c0c0c0" stroke="#c0c0c0" cx="433.5316" cy="-528.8" rx="36" ry="18"/>
<text text-anchor="middle" x="433.5316" y="-524.6" font-family="Times,serif" font-size="14.00" fill="#000000">&amp;</text>
</g>
<!-- orGateO -->
<g id="node14" class="node">
<title>orGateO</title>
<ellipse fill="#c0c0c0" stroke="#c0c0c0" cx="541.5316" cy="-420.8" rx="36" ry="18"/>
<text text-anchor="middle" x="541.5316" y="-416.6" font-family="Times,serif" font-size="14.00" fill="#000000">OR</text>
</g>
<!-- andTempIndex32&#45;&gt;orGateO -->
<g id="edge10" class="edge">
<title>andTempIndex32&#45;&gt;orGateO</title>
<path fill="none" stroke="#000000" d="M469.5356,-528.8C504.8823,-528.8 553.5316,-528.8 553.5316,-528.8 553.5316,-528.8 553.5316,-448.1521 553.5316,-448.1521"/>
<polygon fill="#000000" stroke="#000000" points="557.0317,-448.152 553.5316,-438.1521 550.0317,-448.1521 557.0317,-448.152"/>
</g>
<!-- andShelfPcount -->
<g id="node13" class="node">
<title>andShelfPcount</title>
<ellipse fill="#c0c0c0" stroke="#c0c0c0" cx="325.5316" cy="-150.8" rx="36" ry="18"/>
<text text-anchor="middle" x="325.5316" y="-146.6" font-family="Times,serif" font-size="14.00" fill="#000000">&amp;</text>
</g>
<!-- orGateI -->
<g id="node15" class="node">
<title>orGateI</title>
<ellipse fill="#c0c0c0" stroke="#c0c0c0" cx="433.5316" cy="-96.8" rx="36" ry="18"/>
<text text-anchor="middle" x="433.5316" y="-92.6" font-family="Times,serif" font-size="14.00" fill="#000000">OR</text>
</g>
<!-- andShelfPcount&#45;&gt;orGateI -->
<g id="edge23" class="edge">
<title>andShelfPcount&#45;&gt;orGateI</title>
<path fill="none" stroke="#000000" d="M361.7945,-150.8C393.1696,-150.8 433.5316,-150.8 433.5316,-150.8 433.5316,-150.8 433.5316,-125.0819 433.5316,-125.0819"/>
<polygon fill="#000000" stroke="#000000" points="437.0317,-125.0819 433.5316,-115.0819 430.0317,-125.082 437.0317,-125.0819"/>
</g>
<!-- orGateO&#45;&gt;gateO -->
<g id="edge26" class="edge">
<title>orGateO&#45;&gt;gateO</title>
<path fill="none" stroke="#000000" d="M577.8689,-420.8C577.8689,-420.8 603.2547,-420.8 603.2547,-420.8"/>
<polygon fill="#000000" stroke="#000000" points="603.2548,-424.3001 613.2547,-420.8 603.2547,-417.3001 603.2548,-424.3001"/>
</g>
<!-- orGateI&#45;&gt;gateI -->
<g id="edge27" class="edge">
<title>orGateI&#45;&gt;gateI</title>
<path fill="none" stroke="#000000" d="M469.6371,-96.8C469.6371,-96.8 603.3805,-96.8 603.3805,-96.8"/>
<polygon fill="#000000" stroke="#000000" points="603.3805,-100.3001 613.3805,-96.8 603.3804,-93.3001 603.3805,-100.3001"/>
</g>
<!-- orVent&#45;&gt;vent -->
<g id="edge28" class="edge">
<title>orVent&#45;&gt;vent</title>
<path fill="none" stroke="#000000" d="M577.8689,-582.8C577.8689,-582.8 603.2547,-582.8 603.2547,-582.8"/>
<polygon fill="#000000" stroke="#000000" points="603.2548,-586.3001 613.2547,-582.8 603.2547,-579.3001 603.2548,-586.3001"/>
</g>
<!-- biggerTemp25&#45;&gt;andTempIndex27 -->
<g id="edge8" class="edge">
<title>biggerTemp25&#45;&gt;andTempIndex27</title>
<path fill="none" stroke="#000000" d="M359.7035,-588.8C359.7035,-588.8 389.582,-588.8 389.582,-588.8"/>
<polygon fill="#000000" stroke="#000000" points="389.5821,-592.3001 399.582,-588.8 389.582,-585.3001 389.5821,-592.3001"/>
</g>
<!-- biggerTemp25&#45;&gt;andTempIndex32 -->
<g id="edge6" class="edge">
<title>biggerTemp25&#45;&gt;andTempIndex32</title>
<path fill="none" stroke="#000000" d="M359.7306,-576.8C370.4473,-576.8 379.5316,-576.8 379.5316,-576.8 379.5316,-576.8 379.5316,-534.8 379.5316,-534.8 379.5316,-534.8 389.3326,-534.8 389.3326,-534.8"/>
<polygon fill="#000000" stroke="#000000" points="389.3326,-538.3001 399.3326,-534.8 389.3325,-531.3001 389.3326,-538.3001"/>
</g>
<!-- biggerIndex32&#45;&gt;andTempIndex32 -->
<g id="edge7" class="edge">
<title>biggerIndex32&#45;&gt;andTempIndex32</title>
<path fill="none" stroke="#000000" d="M359.7035,-522.8C359.7035,-522.8 389.582,-522.8 389.582,-522.8"/>
<polygon fill="#000000" stroke="#000000" points="389.5821,-526.3001 399.582,-522.8 389.582,-519.3001 389.5821,-526.3001"/>
</g>
<!-- biggerIndex27&#45;&gt;andTempIndex27 -->
<g id="edge9" class="edge">
<title>biggerIndex27&#45;&gt;andTempIndex27</title>
<path fill="none" stroke="#000000" d="M361.7945,-636.8C393.1696,-636.8 433.5316,-636.8 433.5316,-636.8 433.5316,-636.8 433.5316,-611.0819 433.5316,-611.0819"/>
<polygon fill="#000000" stroke="#000000" points="437.0317,-611.0819 433.5316,-601.0819 430.0317,-611.082 437.0317,-611.0819"/>
</g>
<!-- biggerMcount7&#45;&gt;orVent -->
<g id="edge13" class="edge">
<title>biggerMcount7&#45;&gt;orVent</title>
<path fill="none" stroke="#000000" d="M469.5516,-474.8C496.792,-474.8 529.5316,-474.8 529.5316,-474.8 529.5316,-474.8 529.5316,-555.4479 529.5316,-555.4479"/>
<polygon fill="#000000" stroke="#000000" points="526.0317,-555.4479 529.5316,-565.4479 533.0317,-555.448 526.0317,-555.4479"/>
</g>
<!-- biggerMcount10&#45;&gt;orGateO -->
<g id="edge15" class="edge">
<title>biggerMcount10&#45;&gt;orGateO</title>
<path fill="none" stroke="#000000" d="M469.7945,-420.8C469.7945,-420.8 495.1806,-420.8 495.1806,-420.8"/>
<polygon fill="#000000" stroke="#000000" points="495.1806,-424.3001 505.1806,-420.8 495.1806,-417.3001 495.1806,-424.3001"/>
</g>
<!-- isEmpty&#45;&gt;bot -->
<g id="edge17" class="edge">
<title>isEmpty&#45;&gt;bot</title>
<path fill="none" stroke="#000000" d="M250.8559,-264.8C250.8559,-264.8 603.4023,-264.8 603.4023,-264.8"/>
<polygon fill="#000000" stroke="#000000" points="603.4023,-268.3001 613.4023,-264.8 603.4023,-261.3001 603.4023,-268.3001"/>
</g>
<!-- isEmpty&#45;&gt;andShelfPcount -->
<g id="edge22" class="edge">
<title>isEmpty&#45;&gt;andShelfPcount</title>
<path fill="none" stroke="#000000" d="M250.8816,-252.8C282.779,-252.8 325.5316,-252.8 325.5316,-252.8 325.5316,-252.8 325.5316,-179.0356 325.5316,-179.0356"/>
<polygon fill="#000000" stroke="#000000" points="329.0317,-179.0355 325.5316,-169.0356 322.0317,-179.0356 329.0317,-179.0355"/>
</g>
<!-- allEmpty&#45;&gt;orGateO -->
<g id="edge25" class="edge">
<title>allEmpty&#45;&gt;orGateO</title>
<path fill="none" stroke="#000000" d="M244.7362,-355.3C323.5126,-355.3 541.5316,-355.3 541.5316,-355.3 541.5316,-355.3 541.5316,-392.5546 541.5316,-392.5546"/>
<polygon fill="#000000" stroke="#000000" points="538.0317,-392.5546 541.5316,-402.5546 545.0317,-392.5546 538.0317,-392.5546"/>
</g>
<!-- biggerPcount4&#45;&gt;orGateI -->
<g id="edge19" class="edge">
<title>biggerPcount4&#45;&gt;orGateI</title>
<path fill="none" stroke="#000000" d="M361.7945,-96.8C361.7945,-96.8 387.1806,-96.8 387.1806,-96.8"/>
<polygon fill="#000000" stroke="#000000" points="387.1806,-100.3001 397.1806,-96.8 387.1806,-93.3001 387.1806,-100.3001"/>
</g>
<!-- biggerPcount2&#45;&gt;andShelfPcount -->
<g id="edge21" class="edge">
<title>biggerPcount2&#45;&gt;andShelfPcount</title>
<path fill="none" stroke="#000000" d="M252.6812,-148.8C252.6812,-148.8 279.6539,-148.8 279.6539,-148.8"/>
<polygon fill="#000000" stroke="#000000" points="279.6539,-152.3001 289.6539,-148.8 279.6538,-145.3001 279.6539,-152.3001"/>
</g>
</g>
</svg>
