<?xml version="1.0" encoding="UTF-8" standalone="no"?>
<!DOCTYPE svg PUBLIC "-//W3C//DTD SVG 1.1//EN"
 "http://www.w3.org/Graphics/SVG/1.1/DTD/svg11.dtd">
<!-- Generated by graphviz version 2.44.0 (0)
 -->
<!-- Title: G Pages: 1 -->
<svg width="674pt" height="823pt"
 viewBox="0.00 0.00 674.00 823.00" xmlns="http://www.w3.org/2000/svg" xmlns:xlink="http://www.w3.org/1999/xlink">
<g id="graph0" class="graph" transform="scale(1 1) rotate(0) translate(4 819)">
<title>G</title>
<polygon fill="white" stroke="transparent" points="-4,4 -4,-819 670,-819 670,4 -4,4"/>
<text text-anchor="middle" x="333" y="-7.8" font-family="Times,serif" font-size="14.00">PDDL</text>
<!-- temp -->
<g id="node1" class="node">
<title>temp</title>
<polygon fill="lightblue" stroke="lightblue" points="144,-653 0,-653 0,-509 144,-509 144,-653"/>
<text text-anchor="middle" x="72" y="-577.3" font-family="Times,serif" font-size="14.00">Temperature</text>
</g>
<!-- index -->
<g id="node6" class="node">
<title>index</title>
<polygon fill="lightblue" stroke="lightblue" points="270,-626 180,-626 180,-536 270,-536 270,-626"/>
<text text-anchor="middle" x="225" y="-577.3" font-family="Times,serif" font-size="14.00">Heatindex</text>
</g>
<!-- temp&#45;&gt;index -->
<g id="edge1" class="edge">
<title>temp&#45;&gt;index</title>
<path fill="none" stroke="black" d="M144.02,-581C144.02,-581 169.96,-581 169.96,-581"/>
<polygon fill="black" stroke="black" points="169.96,-584.5 179.96,-581 169.96,-577.5 169.96,-584.5"/>
</g>
<!-- humid -->
<g id="node2" class="node">
<title>humid</title>
<polygon fill="lightblue" stroke="lightblue" points="144,-815 0,-815 0,-671 144,-671 144,-815"/>
<text text-anchor="middle" x="72" y="-739.3" font-family="Times,serif" font-size="14.00">Humidity</text>
</g>
<!-- humid&#45;&gt;index -->
<g id="edge2" class="edge">
<title>humid&#45;&gt;index</title>
<path fill="none" stroke="black" d="M144.02,-743C183.7,-743 225,-743 225,-743 225,-743 225,-636.13 225,-636.13"/>
<polygon fill="black" stroke="black" points="228.5,-636.13 225,-626.13 221.5,-636.13 228.5,-636.13"/>
</g>
<!-- mcount -->
<g id="node3" class="node">
<title>mcount</title>
<polygon fill="lightblue" stroke="lightblue" points="144,-491 0,-491 0,-347 144,-347 144,-491"/>
<text text-anchor="middle" x="72" y="-415.3" font-family="Times,serif" font-size="14.00">Persons inside building</text>
</g>
<!-- biggerMcount7 -->
<g id="node17" class="node">
<title>biggerMcount7</title>
<ellipse fill="grey" stroke="grey" cx="342" cy="-470" rx="36" ry="18"/>
<text text-anchor="middle" x="342" y="-466.3" font-family="Times,serif" font-size="14.00">&gt;7</text>
</g>
<!-- mcount&#45;&gt;biggerMcount7 -->
<g id="edge7" class="edge">
<title>mcount&#45;&gt;biggerMcount7</title>
<path fill="none" stroke="black" d="M144,-470C144,-470 295.77,-470 295.77,-470"/>
<polygon fill="black" stroke="black" points="295.77,-473.5 305.77,-470 295.77,-466.5 295.77,-473.5"/>
</g>
<!-- biggerMcount10 -->
<g id="node18" class="node">
<title>biggerMcount10</title>
<ellipse fill="grey" stroke="grey" cx="225" cy="-419" rx="36" ry="18"/>
<text text-anchor="middle" x="225" y="-415.3" font-family="Times,serif" font-size="14.00">&gt;10</text>
</g>
<!-- mcount&#45;&gt;biggerMcount10 -->
<g id="edge9" class="edge">
<title>mcount&#45;&gt;biggerMcount10</title>
<path fill="none" stroke="black" d="M144.02,-419C144.02,-419 178.7,-419 178.7,-419"/>
<polygon fill="black" stroke="black" points="178.7,-422.5 188.7,-419 178.7,-415.5 178.7,-422.5"/>
</g>
<!-- pcount -->
<g id="node4" class="node">
<title>pcount</title>
<polygon fill="lightblue" stroke="lightblue" points="144,-167 0,-167 0,-23 144,-23 144,-167"/>
<text text-anchor="middle" x="72" y="-91.3" font-family="Times,serif" font-size="14.00">Persons in section n</text>
</g>
<!-- biggerPcount4 -->
<g id="node21" class="node">
<title>biggerPcount4</title>
<ellipse fill="grey" stroke="grey" cx="342" cy="-95" rx="36" ry="18"/>
<text text-anchor="middle" x="342" y="-91.3" font-family="Times,serif" font-size="14.00">&gt;4</text>
</g>
<!-- pcount&#45;&gt;biggerPcount4 -->
<g id="edge13" class="edge">
<title>pcount&#45;&gt;biggerPcount4</title>
<path fill="none" stroke="black" d="M144,-95C144,-95 295.77,-95 295.77,-95"/>
<polygon fill="black" stroke="black" points="295.77,-98.5 305.77,-95 295.77,-91.5 295.77,-98.5"/>
</g>
<!-- biggerPcount2 -->
<g id="node22" class="node">
<title>biggerPcount2</title>
<ellipse fill="grey" stroke="grey" cx="225" cy="-145" rx="36" ry="18"/>
<text text-anchor="middle" x="225" y="-141.3" font-family="Times,serif" font-size="14.00">&gt;2</text>
</g>
<!-- pcount&#45;&gt;biggerPcount2 -->
<g id="edge15" class="edge">
<title>pcount&#45;&gt;biggerPcount2</title>
<path fill="none" stroke="black" d="M144.02,-145C144.02,-145 178.7,-145 178.7,-145"/>
<polygon fill="black" stroke="black" points="178.7,-148.5 188.7,-145 178.7,-141.5 178.7,-148.5"/>
</g>
<!-- shelf -->
<g id="node5" class="node">
<title>shelf</title>
<polygon fill="lightblue" stroke="lightblue" points="144,-329 0,-329 0,-185 144,-185 144,-329"/>
<text text-anchor="middle" x="72" y="-253.3" font-family="Times,serif" font-size="14.00">Shelf in section n</text>
</g>
<!-- isEmpty -->
<g id="node19" class="node">
<title>isEmpty</title>
<ellipse fill="grey" stroke="grey" cx="225" cy="-257" rx="36" ry="18"/>
<text text-anchor="middle" x="225" y="-253.3" font-family="Times,serif" font-size="14.00">isEmpty</text>
</g>
<!-- shelf&#45;&gt;isEmpty -->
<g id="edge11" class="edge">
<title>shelf&#45;&gt;isEmpty</title>
<path fill="none" stroke="black" d="M144.02,-257C144.02,-257 178.7,-257 178.7,-257"/>
<polygon fill="black" stroke="black" points="178.7,-260.5 188.7,-257 178.7,-253.5 178.7,-260.5"/>
</g>
<!-- allEmpty -->
<g id="node20" class="node">
<title>allEmpty</title>
<ellipse fill="grey" stroke="grey" cx="225" cy="-338" rx="36" ry="18"/>
<text text-anchor="middle" x="225" y="-334.3" font-family="Times,serif" font-size="14.00">allEmpty</text>
</g>
<!-- shelf&#45;&gt;allEmpty -->
<g id="edge19" class="edge">
<title>shelf&#45;&gt;allEmpty</title>
<path fill="none" stroke="black" d="M144.02,-324.5C144.02,-324.5 191.16,-324.5 191.16,-324.5"/>
<polygon fill="black" stroke="black" points="191.16,-328 201.16,-324.5 191.16,-321 191.16,-328"/>
</g>
<!-- biggerIndex32 -->
<g id="node15" class="node">
<title>biggerIndex32</title>
<ellipse fill="grey" stroke="grey" cx="342" cy="-526" rx="36" ry="18"/>
<text text-anchor="middle" x="342" y="-522.3" font-family="Times,serif" font-size="14.00">&gt;32</text>
</g>
<!-- index&#45;&gt;biggerIndex32 -->
<g id="edge3" class="edge">
<title>index&#45;&gt;biggerIndex32</title>
<path fill="none" stroke="black" d="M270.24,-540C270.24,-540 309.11,-540 309.11,-540"/>
<polygon fill="black" stroke="black" points="309.11,-543.5 319.11,-540 309.11,-536.5 309.11,-543.5"/>
</g>
<!-- biggerIndex27 -->
<g id="node16" class="node">
<title>biggerIndex27</title>
<ellipse fill="grey" stroke="grey" cx="342" cy="-581" rx="36" ry="18"/>
<text text-anchor="middle" x="342" y="-577.3" font-family="Times,serif" font-size="14.00">&gt;27</text>
</g>
<!-- index&#45;&gt;biggerIndex27 -->
<g id="edge4" class="edge">
<title>index&#45;&gt;biggerIndex27</title>
<path fill="none" stroke="black" d="M270.24,-581C270.24,-581 295.95,-581 295.95,-581"/>
<polygon fill="black" stroke="black" points="295.95,-584.5 305.95,-581 295.95,-577.5 295.95,-584.5"/>
</g>
<!-- gateO -->
<g id="node7" class="node">
<title>gateO</title>
<polygon fill="orange" stroke="orange" points="666,-491 522,-491 522,-347 666,-347 666,-491"/>
<text text-anchor="middle" x="594" y="-415.3" font-family="Times,serif" font-size="14.00">Gate outside</text>
</g>
<!-- gateI -->
<g id="node8" class="node">
<title>gateI</title>
<polygon fill="orange" stroke="orange" points="666,-167 522,-167 522,-23 666,-23 666,-167"/>
<text text-anchor="middle" x="594" y="-91.3" font-family="Times,serif" font-size="14.00">Section gate n</text>
</g>
<!-- vent -->
<g id="node9" class="node">
<title>vent</title>
<polygon fill="orange" stroke="orange" points="666,-653 522,-653 522,-509 666,-509 666,-653"/>
<text text-anchor="middle" x="594" y="-577.3" font-family="Times,serif" font-size="14.00">Ventilator</text>
</g>
<!-- bot -->
<g id="node10" class="node">
<title>bot</title>
<polygon fill="orange" stroke="orange" points="666,-329 522,-329 522,-185 666,-185 666,-329"/>
<text text-anchor="middle" x="594" y="-253.3" font-family="Times,serif" font-size="14.00">Shelf refill notification</text>
</g>
<!-- andShelfPcount -->
<g id="node11" class="node">
<title>andShelfPcount</title>
<ellipse fill="grey" stroke="grey" cx="342" cy="-149" rx="36" ry="18"/>
<text text-anchor="middle" x="342" y="-145.3" font-family="Times,serif" font-size="14.00">&amp;</text>
</g>
<!-- orGateI -->
<g id="node13" class="node">
<title>orGateI</title>
<ellipse fill="grey" stroke="grey" cx="450" cy="-95" rx="36" ry="18"/>
<text text-anchor="middle" x="450" y="-91.3" font-family="Times,serif" font-size="14.00">OR</text>
</g>
<!-- andShelfPcount&#45;&gt;orGateI -->
<g id="edge18" class="edge">
<title>andShelfPcount&#45;&gt;orGateI</title>
<path fill="none" stroke="black" d="M378,-149C413.35,-149 462,-149 462,-149 462,-149 462,-122.09 462,-122.09"/>
<polygon fill="black" stroke="black" points="465.5,-122.09 462,-112.09 458.5,-122.09 465.5,-122.09"/>
</g>
<!-- orGateO -->
<g id="node12" class="node">
<title>orGateO</title>
<ellipse fill="grey" stroke="grey" cx="450" cy="-419" rx="36" ry="18"/>
<text text-anchor="middle" x="450" y="-415.3" font-family="Times,serif" font-size="14.00">OR</text>
</g>
<!-- orGateO&#45;&gt;gateO -->
<g id="edge21" class="edge">
<title>orGateO&#45;&gt;gateO</title>
<path fill="none" stroke="black" d="M486.34,-419C486.34,-419 511.72,-419 511.72,-419"/>
<polygon fill="black" stroke="black" points="511.72,-422.5 521.72,-419 511.72,-415.5 511.72,-422.5"/>
</g>
<!-- orGateI&#45;&gt;gateI -->
<g id="edge22" class="edge">
<title>orGateI&#45;&gt;gateI</title>
<path fill="none" stroke="black" d="M486.34,-95C486.34,-95 511.72,-95 511.72,-95"/>
<polygon fill="black" stroke="black" points="511.72,-98.5 521.72,-95 511.72,-91.5 511.72,-98.5"/>
</g>
<!-- orVent -->
<g id="node14" class="node">
<title>orVent</title>
<ellipse fill="grey" stroke="grey" cx="450" cy="-581" rx="36" ry="18"/>
<text text-anchor="middle" x="450" y="-577.3" font-family="Times,serif" font-size="14.00">OR</text>
</g>
<!-- orVent&#45;&gt;vent -->
<g id="edge23" class="edge">
<title>orVent&#45;&gt;vent</title>
<path fill="none" stroke="black" d="M486.34,-581C486.34,-581 511.72,-581 511.72,-581"/>
<polygon fill="black" stroke="black" points="511.72,-584.5 521.72,-581 511.72,-577.5 511.72,-584.5"/>
</g>
<!-- biggerIndex32&#45;&gt;orGateO -->
<g id="edge5" class="edge">
<title>biggerIndex32&#45;&gt;orGateO</title>
<path fill="none" stroke="black" d="M378,-526.5C413.35,-526.5 462,-526.5 462,-526.5 462,-526.5 462,-446.27 462,-446.27"/>
<polygon fill="black" stroke="black" points="465.5,-446.27 462,-436.27 458.5,-446.27 465.5,-446.27"/>
</g>
<!-- biggerIndex27&#45;&gt;orVent -->
<g id="edge6" class="edge">
<title>biggerIndex27&#45;&gt;orVent</title>
<path fill="none" stroke="black" d="M378.26,-581C378.26,-581 403.65,-581 403.65,-581"/>
<polygon fill="black" stroke="black" points="403.65,-584.5 413.65,-581 403.65,-577.5 403.65,-584.5"/>
</g>
<!-- biggerMcount7&#45;&gt;orVent -->
<g id="edge8" class="edge">
<title>biggerMcount7&#45;&gt;orVent</title>
<path fill="none" stroke="black" d="M378.02,-470C405.26,-470 438,-470 438,-470 438,-470 438,-553.66 438,-553.66"/>
<polygon fill="black" stroke="black" points="434.5,-553.66 438,-563.66 441.5,-553.66 434.5,-553.66"/>
</g>
<!-- biggerMcount10&#45;&gt;orGateO -->
<g id="edge10" class="edge">
<title>biggerMcount10&#45;&gt;orGateO</title>
<path fill="none" stroke="black" d="M261.15,-419C261.15,-419 403.94,-419 403.94,-419"/>
<polygon fill="black" stroke="black" points="403.94,-422.5 413.94,-419 403.94,-415.5 403.94,-422.5"/>
</g>
<!-- isEmpty&#45;&gt;bot -->
<g id="edge12" class="edge">
<title>isEmpty&#45;&gt;bot</title>
<path fill="none" stroke="black" d="M259.05,-263C259.05,-263 511.95,-263 511.95,-263"/>
<polygon fill="black" stroke="black" points="511.95,-266.5 521.95,-263 511.95,-259.5 511.95,-266.5"/>
</g>
<!-- isEmpty&#45;&gt;andShelfPcount -->
<g id="edge17" class="edge">
<title>isEmpty&#45;&gt;andShelfPcount</title>
<path fill="none" stroke="black" d="M259.16,-251C293.69,-251 342,-251 342,-251 342,-251 342,-177.24 342,-177.24"/>
<polygon fill="black" stroke="black" points="345.5,-177.24 342,-167.24 338.5,-177.24 345.5,-177.24"/>
</g>
<!-- allEmpty&#45;&gt;orGateO -->
<g id="edge20" class="edge">
<title>allEmpty&#45;&gt;orGateO</title>
<path fill="none" stroke="black" d="M249.02,-351.5C304.72,-351.5 438,-351.5 438,-351.5 438,-351.5 438,-391.97 438,-391.97"/>
<polygon fill="black" stroke="black" points="434.5,-391.97 438,-401.97 441.5,-391.97 434.5,-391.97"/>
</g>
<!-- biggerPcount4&#45;&gt;orGateI -->
<g id="edge14" class="edge">
<title>biggerPcount4&#45;&gt;orGateI</title>
<path fill="none" stroke="black" d="M378.26,-95C378.26,-95 403.65,-95 403.65,-95"/>
<polygon fill="black" stroke="black" points="403.65,-98.5 413.65,-95 403.65,-91.5 403.65,-98.5"/>
</g>
<!-- biggerPcount2&#45;&gt;andShelfPcount -->
<g id="edge16" class="edge">
<title>biggerPcount2&#45;&gt;andShelfPcount</title>
<path fill="none" stroke="black" d="M261.06,-147C261.06,-147 295.86,-147 295.86,-147"/>
<polygon fill="black" stroke="black" points="295.86,-150.5 305.86,-147 295.86,-143.5 295.86,-150.5"/>
</g>
</g>
</svg>
